<svg width="784" height="176" viewBox="0 0 784 176" fill="none" xmlns="http://www.w3.org/2000/svg">
<rect width="176" height="176" rx="48" fill="black"/>
<path d="M128.771 93.709H70.3359V105.395H128.771V93.709Z" fill="#F7F4F2"/>
<path d="M128.771 70.3369H70.3359V82.0227H128.771V70.3369Z" fill="#F7F4F2"/>
<path d="M128.768 58.6486V46.9629H58.6474H46.9617V58.6486V117.083V128.769H58.6474H128.768V117.083H58.6474V58.6486H128.768Z" fill="#F7F4F2"/>
<path d="M644.141 142.258V54.9157H665.206V75.4669H665.72V142.258H644.141ZM702.883 142.258V85.9138C702.883 80.776 701.57 77.0082 698.944 74.6106C696.432 72.0988 692.836 70.8429 688.155 70.8429C684.045 70.8429 680.277 71.8134 676.852 73.7543C673.427 75.6953 670.686 78.4354 668.631 81.9748C666.69 85.5141 665.72 89.6244 665.72 94.3055L663.493 74.2681C666.462 67.8744 670.743 62.7937 676.338 59.026C681.932 55.1441 688.44 53.2031 695.862 53.2031C704.767 53.2031 711.789 55.772 716.927 60.9098C722.064 65.9334 724.633 72.4413 724.633 80.4334V142.258H702.883ZM761.625 142.258V85.9138C761.625 80.776 760.369 77.0082 757.858 74.6106C755.346 72.0988 751.749 70.8429 747.068 70.8429C742.844 70.8429 739.019 71.8134 735.594 73.7543C732.169 75.6953 729.486 78.4354 727.545 81.9748C725.604 85.5141 724.633 89.6244 724.633 94.3055L720.866 74.2681C723.72 67.8744 728.058 62.7937 733.881 59.026C739.704 55.1441 746.44 53.2031 754.09 53.2031C763.224 53.2031 770.36 55.8291 775.497 61.0811C780.749 66.2189 783.375 73.0693 783.375 81.6323V142.258H761.625Z" fill="black"/>
<path d="M588.536 143.971C579.288 143.971 571.125 142.03 564.046 138.148C557.082 134.266 551.658 128.9 547.776 122.05C543.895 115.085 541.954 107.15 541.954 98.2445C541.954 89.3389 543.895 81.5181 547.776 74.7819C551.658 68.0456 557.082 62.7937 564.046 59.026C571.125 55.1441 579.288 53.2031 588.536 53.2031C597.898 53.2031 606.062 55.1441 613.026 59.026C619.991 62.7937 625.414 68.0456 629.296 74.7819C633.178 81.5181 635.119 89.3389 635.119 98.2445C635.119 107.15 633.121 115.085 629.125 122.05C625.243 128.9 619.82 134.266 612.855 138.148C605.891 142.03 597.784 143.971 588.536 143.971ZM588.536 126.674C593.103 126.674 597.213 125.532 600.867 123.248C604.521 120.851 607.375 117.54 609.43 113.315C611.485 108.977 612.513 103.896 612.513 98.0732C612.513 89.5102 610.229 82.774 605.662 77.8645C601.21 72.9551 595.501 70.5004 588.536 70.5004C581.572 70.5004 575.806 72.9551 571.239 77.8645C566.672 82.774 564.389 89.5102 564.389 98.0732C564.389 103.896 565.416 108.977 567.471 113.315C569.641 117.54 572.495 120.851 576.034 123.248C579.688 125.532 583.855 126.674 588.536 126.674Z" fill="black"/>
<path d="M527.974 143.97C517.242 143.97 509.307 141.459 504.169 136.435C499.146 131.297 496.634 123.648 496.634 113.486V35.0492L518.384 27V114C518.384 118.224 519.526 121.364 521.809 123.419C524.092 125.474 527.689 126.502 532.598 126.502C534.539 126.502 536.252 126.388 537.736 126.159C539.335 125.817 540.819 125.417 542.189 124.961V141.744C540.819 142.429 538.878 142.943 536.366 143.285C533.854 143.742 531.057 143.97 527.974 143.97ZM479.85 71.8701V54.9153H542.189V71.8701H479.85Z" fill="black"/>
<path d="M459.253 142.258C458.682 139.975 458.225 137.463 457.883 134.723C457.654 131.983 457.54 128.672 457.54 124.79H456.855V83.3449C456.855 78.7779 455.542 75.3527 452.916 73.0693C450.404 70.6716 446.522 69.4728 441.27 69.4728C436.133 69.4728 432.022 70.4433 428.94 72.3842C425.971 74.211 424.144 76.8941 423.459 80.4334H402.737C403.65 72.3271 407.532 65.7622 414.383 60.7386C421.233 55.7149 430.424 53.2031 441.955 53.2031C453.944 53.2031 463.02 55.9433 469.186 61.4236C475.351 66.7897 478.434 74.7248 478.434 85.2287V124.79C478.434 127.53 478.605 130.327 478.947 133.181C479.404 136.036 480.032 139.061 480.831 142.258H459.253ZM428.94 143.971C420.148 143.971 413.127 141.802 407.875 137.463C402.737 133.01 400.168 127.073 400.168 119.652C400.168 111.66 403.079 105.323 408.902 100.642C414.725 95.961 422.946 92.8212 433.564 91.2228L460.794 87.1126V100.813L437.16 104.41C432.022 105.209 428.14 106.636 425.514 108.691C423.003 110.746 421.747 113.601 421.747 117.254C421.747 120.565 422.946 123.134 425.343 124.961C427.741 126.674 431.052 127.53 435.276 127.53C441.442 127.53 446.579 125.989 450.69 122.906C454.8 119.823 456.855 116.055 456.855 111.603L459.253 124.79C456.969 131.069 453.201 135.865 447.949 139.176C442.812 142.372 436.475 143.971 428.94 143.971Z" fill="black"/>
<path d="M376.588 142.257L349.7 103.209L313.393 54.9141H337.883L362.202 90.3648L401.078 142.257H376.588ZM351.413 89.6798L375.903 54.9141H399.879L361.86 104.751L351.413 89.6798ZM359.976 105.778L333.602 142.257H309.797L349.7 90.5361L359.976 105.778Z" fill="black"/>
<path d="M272.069 143.971C262.821 143.971 254.714 142.03 247.75 138.148C240.899 134.266 235.533 128.9 231.651 122.05C227.884 115.199 226 107.321 226 98.4157C226 89.5102 227.884 81.6893 231.651 74.9531C235.533 68.1027 240.899 62.7937 247.75 59.026C254.6 55.1441 262.592 53.2031 271.726 53.2031C280.403 53.2031 287.939 55.0299 294.332 58.6834C300.726 62.2228 305.693 67.2464 309.232 73.7543C312.771 80.2622 314.541 87.8547 314.541 96.5319C314.541 98.1303 314.484 99.6145 314.37 100.985C314.256 102.355 314.084 103.725 313.856 105.095H239.358V90.024H297.244L292.791 94.1342C292.791 85.9138 290.907 79.7484 287.139 75.6382C283.372 71.5279 278.12 69.4728 271.384 69.4728C264.077 69.4728 258.254 71.9846 253.915 77.0082C249.691 82.0319 247.578 89.2819 247.578 98.7582C247.578 108.12 249.691 115.313 253.915 120.337C258.254 125.246 264.362 127.701 272.24 127.701C276.807 127.701 280.803 126.845 284.228 125.132C287.653 123.42 290.165 120.794 291.764 117.254H312.143C309.289 125.475 304.437 131.983 297.586 136.778C290.85 141.573 282.344 143.971 272.069 143.971Z" fill="black"/>
</svg>
